<svg xmlns="http://www.w3.org/2000/svg" xmlns:xlink="http://www.w3.org/1999/xlink" width="777.392" height="230.192" viewBox="0 0 777.392 230.192">
  <defs>
    <clipPath id="clip-path">
      <rect id="Rectangle_17787" data-name="Rectangle 17787" width="197.173" height="229.977" fill="none"/>
    </clipPath>
    <clipPath id="clip-path-3">
      <rect id="Rectangle_17764" data-name="Rectangle 17764" width="1.165" height="0.439" fill="none"/>
    </clipPath>
    <clipPath id="clip-path-4">
      <rect id="Rectangle_17765" data-name="Rectangle 17765" width="0.872" height="0.313" fill="none"/>
    </clipPath>
    <clipPath id="clip-path-5">
      <rect id="Rectangle_17766" data-name="Rectangle 17766" width="1.038" height="0.379" fill="none"/>
    </clipPath>
    <clipPath id="clip-path-6">
      <rect id="Rectangle_17767" data-name="Rectangle 17767" width="4.279" height="18.846" fill="none"/>
    </clipPath>
    <clipPath id="clip-path-7">
      <rect id="Rectangle_17768" data-name="Rectangle 17768" width="1.431" height="0.626" fill="none"/>
    </clipPath>
    <clipPath id="clip-path-8">
      <rect id="Rectangle_17769" data-name="Rectangle 17769" width="0.007" height="0.007" fill="none"/>
    </clipPath>
    <clipPath id="clip-path-9">
      <rect id="Rectangle_17770" data-name="Rectangle 17770" width="0.506" height="0.213" fill="none"/>
    </clipPath>
    <clipPath id="clip-path-10">
      <rect id="Rectangle_17771" data-name="Rectangle 17771" width="1.677" height="0.566" fill="none"/>
    </clipPath>
    <clipPath id="clip-path-11">
      <rect id="Rectangle_17772" data-name="Rectangle 17772" width="20.976" height="7.513" fill="none"/>
    </clipPath>
    <clipPath id="clip-path-12">
      <rect id="Rectangle_17773" data-name="Rectangle 17773" width="0.213" height="0.06" fill="none"/>
    </clipPath>
    <clipPath id="clip-path-13">
      <rect id="Rectangle_17774" data-name="Rectangle 17774" width="5.989" height="2.422" fill="none"/>
    </clipPath>
    <clipPath id="clip-path-14">
      <rect id="Rectangle_17775" data-name="Rectangle 17775" width="2.221" height="1.236" fill="none"/>
    </clipPath>
    <clipPath id="clip-path-15">
      <rect id="Rectangle_17776" data-name="Rectangle 17776" width="0.303" height="0.178" fill="none"/>
    </clipPath>
    <clipPath id="clip-path-16">
      <rect id="Rectangle_17777" data-name="Rectangle 17777" width="0.513" height="0.27" fill="none"/>
    </clipPath>
    <clipPath id="clip-path-17">
      <rect id="Rectangle_17778" data-name="Rectangle 17778" width="6.595" height="4.306" fill="none"/>
    </clipPath>
    <clipPath id="clip-path-18">
      <rect id="Rectangle_17779" data-name="Rectangle 17779" width="0.18" height="0.08" fill="none"/>
    </clipPath>
    <clipPath id="clip-path-19">
      <rect id="Rectangle_17780" data-name="Rectangle 17780" width="0.1" height="0.047" fill="none"/>
    </clipPath>
    <clipPath id="clip-path-20">
      <rect id="Rectangle_17781" data-name="Rectangle 17781" width="2.436" height="1.224" fill="none"/>
    </clipPath>
    <clipPath id="clip-path-21">
      <rect id="Rectangle_17782" data-name="Rectangle 17782" width="17.413" height="1.13" fill="none"/>
    </clipPath>
    <clipPath id="clip-path-22">
      <rect id="Rectangle_17783" data-name="Rectangle 17783" width="3.12" height="0.342" fill="none"/>
    </clipPath>
    <clipPath id="clip-path-23">
      <rect id="Rectangle_17784" data-name="Rectangle 17784" width="2.811" height="0.232" fill="none"/>
    </clipPath>
    <clipPath id="clip-path-24">
      <rect id="Rectangle_17785" data-name="Rectangle 17785" width="1.899" height="14.116" fill="none"/>
    </clipPath>
  </defs>
  <g id="Group_136958" data-name="Group 136958" transform="translate(-210.817 -484.655)">
    <g id="Group_136837" data-name="Group 136837" transform="translate(425.548 556.078)">
      <path id="Path_192796" data-name="Path 192796" d="M323,9.556h20.264l4.311-12.072a46.672,46.672,0,0,0,33.845,14.443c25.437,0,51.953-19.833,52.168-58.851v-1.293c-.216-38.8-26.515-58.635-52.168-58.635a46.629,46.629,0,0,0-29.1,9.916v-48.5H323Zm29.318-46.348V-58.349c0-14.659,11.641-23.5,23.713-23.5,13.15,0,26.946,10.347,27.162,34.276-.216,23.928-14.012,34.276-27.162,34.276C363.956-13.295,352.316-22.133,352.316-36.792ZM471.742-16.744V-144.793H442.424v133.87c0,19.617,14.443,23.5,26.084,23.5a69.626,69.626,0,0,0,13.581-1.509V-7.259C476.054-6.181,471.742-8.337,471.742-16.744Zm82.564-88.6V-38.3c0,19.186-11.21,27.593-21.342,27.593-8.407,0-16.168-5.82-16.168-16.383v-78.037H487.479v78.037c0,25.437,19.617,39.018,39.45,39.018,12.072,0,24.144-4.958,32.12-15.09L563.36,9.771h20.479V-105.344Z" transform="translate(-21.179 145.44)" fill="#294a89"/>
      <path id="Path_192797" data-name="Path 192797" d="M122.653-28.212c0,10.994-6.683,16.6-13.365,16.6-6.9,0-13.581-5.6-13.581-16.6V-83.4h30.18v-22.2H95.707v-36H74.15l-1.293,6.252c-5.6,24.575-18.755,34.276-18.755,34.276V-83.4H66.389v59.282H66.6a.668.668,0,0,0-.216.431c0,24.575,20.479,37.509,41.174,37.509,20.91,0,42.036-13.365,42.036-41.605v-19.4H122.653Zm59.5-64.24-4.527-13.15H157.36V9.3h29.318V-63.35c0-12.288,7.761-18.108,14.874-18.108,6.252,0,12.072,4.527,12.072,12.719v3.234h26.946V-69.17c0-25.437-15.952-37.941-31.9-37.941C198.534-107.111,188.618-102.153,182.151-92.452ZM312.356-105.6v67.043c0,19.186-11.21,27.593-21.342,27.593-8.407,0-16.168-5.82-16.168-16.383v-78.037H245.529v78.037c0,25.437,19.617,39.018,39.45,39.018,12.072,0,24.144-4.958,32.12-15.09L321.41,9.513h20.479V-105.6Z" transform="translate(-54.102 144.943)" fill="#3b7eb7"/>
    </g>
    <g id="Group_136956" data-name="Group 136956" transform="translate(210.817 484.655)">
      <g id="Group_136948" data-name="Group 136948" clip-path="url(#clip-path)">
        <g id="Group_136947" data-name="Group 136947">
          <g id="Group_136946" data-name="Group 136946" clip-path="url(#clip-path)">
            <path id="Path_210656" data-name="Path 210656" d="M197.166,144.5v-.106c-.013-.419-.027-.832-.047-1.244-.013-.359-.027-.719-.047-1.078-.053-1.171-.126-2.336-.226-3.5-.013-.233-.033-.466-.053-.7-.033-.313-.06-.626-.093-.938-.08-.825-.173-1.65-.273-2.469-.02-.173-.04-.346-.067-.512a98.79,98.79,0,0,0-69.6-81.72c-.253-.073-.486-.16-.752-.22l8.252,17.2h.013l.652.3h.027A85.437,85.437,0,0,1,183.777,141.4c.007.16.007.333.007.486h.013v.02h.007c.226-.106.453-.213.679-.326s.453-.213.672-.333c.113-.053.226-.106.339-.166s.226-.113.333-.173c.226-.113.453-.226.672-.346.173-.093.346-.18.512-.28s.333-.186.506-.279.326-.18.492-.266c.413-.226.819-.459,1.224-.7s.805-.472,1.2-.719v-.007h.007c.426-.266.845-.532,1.271-.805V137.5h.007c.419-.273.832-.546,1.251-.832v-.007h.007c.413-.279.825-.566,1.231-.858V135.8h.007c.126-.093.246-.186.366-.273.087-.06.166-.12.246-.173.033-.027.067-.047.093-.067v-.007h.007a3.6,3.6,0,0,1,.313-.206c.1-.067.193-.126.286-.186s.22-.133.333-.193l.08-.04a.376.376,0,0,1,.08-.027c.067-.033.133-.06.2-.087v-.007h.007q.539,3.683.765,7.4c.08,1.125.133,2.249.166,3.381-.027.053-.053.113-.08.166l.106-.16.013-.013c-.013-.266-.013-.546-.033-.812m-2.2,4.039A12.154,12.154,0,0,0,196,147.312c.113-.146.213-.293.313-.439a10.979,10.979,0,0,0,.652-1.158c.033-.067.067-.14.1-.213Zm-.266.28a.29.29,0,0,0,.047-.04l.033-.033c.007,0,.007,0,.013-.007s.02-.013.027-.02.02-.02.027-.027l.04-.033h.007v-.013l.007-.007.053-.08c-.08.086-.173.173-.253.26M67.818,53.075a98.767,98.767,0,0,0-67.239,83.6c-.073.646-.133,1.3-.193,1.956a1.632,1.632,0,0,0-.013.18C.26,140.2.18,141.6.133,142.993c-.02.659-.027,1.318-.04,1.983,0,.067-.007.14-.007.206v.12c-.007.472-.007.925-.007,1.411v.685c.007-.752.027-1.5.047-2.236.013-.373.027-.745.047-1.118.067-1.391.16-2.768.279-4.146.04-.459.087-.918.133-1.378A6.687,6.687,0,0,1,1.344,138c.12-.067.246-.14.366-.2a.289.289,0,0,0,.047-.027c.14-.067.279-.133.426-.193a.007.007,0,0,0,.007-.007c.113-.053.226-.106.339-.166l.339-.16v-.007h.007c.472-.213.945-.426,1.424-.639v-.007h.007c.472-.213.952-.419,1.431-.626v-.007h.007c.306-.133.626-.266.938-.4.166-.067.333-.14.5-.206l.007-.007c.12-.047.24-.1.366-.146l1.078-.439v-.007h.007c.486-.186.972-.379,1.457-.572a1.837,1.837,0,0,0,.173-.067c.047-.013.087-.033.133-.047.386-.146.772-.293,1.158-.433v-.007h.007l.872-.319c.293-.106.579-.213.872-.313l.166-.06c.146-.053.286-.1.433-.153.2-.067.406-.14.606-.206v-.007h.007v-.027c.08-.526.166-1.045.26-1.544A85.493,85.493,0,0,1,59.347,71.009c1.2-.639,2.422-1.231,3.653-1.8l8.265-17.2q-1.717.479-3.447,1.058" transform="translate(-0.027 -17.399)" fill="#3b7eb7"/>
            <path id="Path_210657" data-name="Path 210657" d="M95.707,83.64c-.4,3.673-.985,8.338-1.9,14.181-.612.153-1.218.359-1.823.552h-.013a62.309,62.309,0,0,0-38.77,37.4c-.146.413-.293.819-.446,1.224v.04c-1.191.146-2.389.326-3.587.519-3.174.526-6.322,1.145-9.436,1.917-.532.133-1.078.253-1.6.413v-.033c.12-.479.233-.932.346-1.391A75.543,75.543,0,0,1,94.442,83.92c.413-.1.838-.186,1.264-.279" transform="translate(-12.756 -27.98)" fill="#3b7eb7"/>
            <path id="Path_210658" data-name="Path 210658" d="M231.005,156.06v.027c-.073.02-.14.04-.206.053l-.073.02c-.087.027-.186.053-.286.08h-.027q-1.867.489-3.787.832h-.02c-1.5.286-3.008.506-4.519.672-.679.067-1.351.126-2.023.18-.772.053-1.544.093-2.316.113h-.007v-.007c.02-.246.02-.5.02-.739v-.053A62.106,62.106,0,0,0,176.5,98.8h-.013c-1.231-.446-2.456-.838-3.7-1.2L171,84.375l-.113-.852-.007-.033c.905.18,1.783.373,2.669.592a75.439,75.439,0,0,1,57.457,71.352c0,.213.02.413,0,.626" transform="translate(-57.164 -27.93)" fill="#3b7eb7"/>
            <path id="Path_210659" data-name="Path 210659" d="M148.175,125.08c-1.351-.712-2.762-1.364-4.206-1.95.918,5.024,2.016,10.674,3.341,16.99a37.008,37.008,0,0,1,4.732,4.159,37.477,37.477,0,0,1,10.421,22.6c.033.279.053.566.067.852v.02c.419.126.832.246,1.251.366.839.24,1.677.466,2.522.685s1.69.419,2.535.612l1.278.28c.852.186,1.7.353,2.555.512.492.1.978.18,1.471.26s.985.146,1.484.213c.093.013.193.033.293.053v-.839a51.13,51.13,0,0,0-27.744-44.813m-44.833-.925A51.52,51.52,0,0,0,78.979,148c-.18.359-.339.719-.519,1.1l-.013.013-.007.007c.492-.02.978-.047,1.477-.067h.166q5.37-.2,10.654.1c.952.047,1.883.093,2.815.16a.007.007,0,0,0,.007-.007l.007-.007c.2-.313.413-.626.626-.918a36.65,36.65,0,0,1,6.169-6.668c.459-.393.925-.765,1.4-1.138,1.338-6.408,2.469-12.125,3.407-17.216-.606.266-1.231.526-1.823.8" transform="translate(-26.24 -41.19)" fill="#3b7eb7"/>
            <path id="Path_210660" data-name="Path 210660" d="M112.9,71.18l-.492,1.165a4.38,4.38,0,0,1,.492-1.165" transform="translate(-37.604 -23.812)" fill="#294a89"/>
            <path id="Path_210661" data-name="Path 210661" d="M126.663,165.963a.9.9,0,0,0-.193-.033v-.02a.43.43,0,0,0,.087.027h.013a.683.683,0,0,0,.093.027" transform="translate(-42.308 -55.502)" fill="#294a89"/>
            <rect id="Rectangle_17761" data-name="Rectangle 17761" width="0.007" height="0.007" transform="translate(114.208 118.853)" fill="#294a89"/>
            <path id="Path_210662" data-name="Path 210662" d="M19.319,194.58c-.007,0-.013.007-.02.007-.366.126-.732.26-1.1.386-1.1.393-2.2.792-3.287,1.231a108.826,108.826,0,0,0-12.87,6.023c-.479.266-.972.546-1.6.905v-.02c.619-.359,1.111-.619,1.571-.885a109.894,109.894,0,0,1,12.87-6.023q1.1-.439,2.2-.838c.732-.266,1.471-.532,2.209-.785Z" transform="translate(-0.147 -65.092)" fill="#294a89"/>
            <path id="Path_210663" data-name="Path 210663" d="M109.339,163.25h-.067c-.772-.1-1.551-.173-2.342-.26l.619.06c.579.053,1.151.12,1.724.18a.1.1,0,0,0,.047.013.024.024,0,0,0,.02.007" transform="translate(-35.771 -54.525)" fill="#294a89"/>
            <path id="Path_210664" data-name="Path 210664" d="M125.429,165.732a.9.9,0,0,0-.193-.033c-.819-.166-1.637-.333-2.456-.479.413.073.819.146,1.224.226s.819.153,1.224.233h.007a.431.431,0,0,0,.087.027h.013a.685.685,0,0,0,.093.027" transform="translate(-41.073 -55.271)" fill="#294a89"/>
            <path id="Path_210665" data-name="Path 210665" d="M170.8,178.317l.047.02c-.1-.033-.206-.073-.306-.106.087.027.173.06.26.087" transform="translate(-57.05 -59.623)" fill="#294a89"/>
            <rect id="Rectangle_17762" data-name="Rectangle 17762" width="0.007" height="0.007" transform="translate(114.208 118.853)" fill="#294a89"/>
            <path id="Path_210666" data-name="Path 210666" d="M204.713,190.137v.02a1.031,1.031,0,0,0-.153-.047l.08.02c.007-.007.013,0,.02,0a.146.146,0,0,0,.053.007" transform="translate(-68.431 -63.597)" fill="#294a89"/>
            <path id="Path_210667" data-name="Path 210667" d="M283.016,197.52a9.462,9.462,0,0,1-1.258,1.1,64.479,64.479,0,0,1-10.674,6.681,57.277,57.277,0,0,1-6.894,2.875l.992-.359c1-.366,1.99-.759,2.968-1.178s1.943-.872,2.9-1.344a64.169,64.169,0,0,0,10.674-6.675,8.68,8.68,0,0,0,1.058-.912l.027-.02a2.581,2.581,0,0,0,.206-.173" transform="translate(-88.379 -66.076)" fill="#294a89"/>
            <path id="Path_210668" data-name="Path 210668" d="M295.026,186.76l-.007.007a10.993,10.993,0,0,1-.852,1.551,12.6,12.6,0,0,1-1.437,1.764l-.007.007-.007.013-.04.033c-.007.007-.02.013-.027.027s-.02.02-.027.02-.007.007-.013.007l-.033.033a.29.29,0,0,1-.047.04c.08-.087.173-.173.253-.26.007-.007.013-.013.013-.02a12.159,12.159,0,0,0,1.038-1.224c.106-.146.206-.293.306-.439a12.357,12.357,0,0,0,.659-1.158c.033-.067.067-.14.1-.213.007-.007.007-.013.013-.02a1.814,1.814,0,0,1,.073-.166c-.033-1.131-.087-2.256-.16-3.381s-.166-2.249-.28-3.367q-.2-2.016-.492-4.026v-.007h.007l.193-.08q.16,1.238.28,2.476c.033.313.06.626.093.938.02.233.04.466.053.7.1,1.165.173,2.329.226,3.5.02.359.033.719.047,1.078.013.413.027.832.033,1.244v.113c.02.273.02.539.04.812" transform="translate(-97.859 -58.843)" fill="#294a89"/>
            <path id="Path_210669" data-name="Path 210669" d="M1.344,181.22a6.693,6.693,0,0,0-.759.526c-.047.459-.093.918-.133,1.378-.12,1.378-.213,2.755-.279,4.146-.02.373-.033.745-.047,1.118-.02.739-.04,1.484-.047,2.236v-.685c.007-.586.013-1.165.013-1.737.013-.665.02-1.324.04-1.983.033-1.391.1-2.775.24-4.179a1.632,1.632,0,0,1,.013-.18c.053-.04.106-.08.16-.113.087-.067.173-.133.266-.193.173-.12.353-.233.532-.333" transform="translate(-0.027 -60.623)" fill="#294a89"/>
            <path id="Path_210670" data-name="Path 210670" d="M3.935,180.08l-.007.007c-.226.113-.453.213-.679.326.113-.053.226-.106.339-.166s.226-.106.339-.166Z" transform="translate(-1.087 -60.242)" fill="#294a89"/>
            <path id="Path_210671" data-name="Path 210671" d="M5.711,179.11a.007.007,0,0,0-.007.007c-.479.213-.952.426-1.424.639.379-.18.765-.353,1.151-.526l.273-.12Z" transform="translate(-1.432 -59.917)" fill="#294a89"/>
            <path id="Path_210672" data-name="Path 210672" d="M7.867,178.16l-.007.007c-.479.206-.958.413-1.431.626.413-.186.832-.373,1.251-.552l.18-.08Z" transform="translate(-2.151 -59.599)" fill="#294a89"/>
            <path id="Path_210673" data-name="Path 210673" d="M10.506,177.24l-.007.007c-.166.067-.333.14-.5.206.166-.073.333-.146.5-.213Z" transform="translate(-3.345 -59.292)" fill="#294a89"/>
            <path id="Path_210674" data-name="Path 210674" d="M12.395,176.35l-.007.007-1.078.439c.359-.153.719-.3,1.078-.446Z" transform="translate(-3.784 -58.994)" fill="#294a89"/>
            <path id="Path_210675" data-name="Path 210675" d="M16.755,174.66a.007.007,0,0,0-.007.007c-.386.14-.772.286-1.158.433q.579-.23,1.158-.439Z" transform="translate(-5.215 -58.429)" fill="#294a89"/>
            <path id="Path_210676" data-name="Path 210676" d="M21.466,173.07v.007c-.2.067-.406.14-.606.206.2-.073.406-.146.606-.213" transform="translate(-6.978 -57.897)" fill="#294a89"/>
            <rect id="Rectangle_17763" data-name="Rectangle 17763" width="0.007" height="0.02" transform="translate(14.487 115.153)" fill="#294a89"/>
            <path id="Path_210677" data-name="Path 210677" d="M23.457,172.19c-.552.18-1.125.379-1.677.566v-.007c.273-.093.546-.186.825-.279s.546-.193.825-.279Z" transform="translate(-7.286 -57.602)" fill="#294a89"/>
            <path id="Path_210678" data-name="Path 210678" d="M27.683,194.58c-.007,0-.013.007-.02.007h-.013c-.359.126-.725.253-1.085.386-.379.126-.752.26-1.125.393.732-.266,1.471-.532,2.209-.785Z" transform="translate(-8.51 -65.092)" fill="#294a89"/>
            <path id="Path_210679" data-name="Path 210679" d="M52.757,163.87v.007c-1.191.146-2.389.326-3.587.519-3.174.526-6.322,1.145-9.436,1.917-.532.133-1.078.253-1.6.413v-.013c.526-.16,1.071-.273,1.61-.406,3.114-.772,6.255-1.391,9.43-1.917q1.8-.3,3.587-.519" transform="translate(-12.756 -54.819)" fill="#294a89"/>
            <path id="Path_210680" data-name="Path 210680" d="M93.56,162.289a.007.007,0,0,1-.007.007c-.932-.067-1.863-.113-2.815-.16q-5.281-.3-10.654-.1h-.166c-.5.02-.985.047-1.477.067l.007-.007c.492-.02.978-.047,1.471-.067h.166q5.37-.2,10.654.1c.952.047,1.883.093,2.822.16" transform="translate(-26.24 -54.177)" fill="#294a89"/>
            <path id="Path_210681" data-name="Path 210681" d="M109.339,163.25h-.067c-.772-.1-1.551-.173-2.342-.26l.619.06c.579.06,1.151.126,1.724.193h.047a.024.024,0,0,0,.02.007" transform="translate(-35.771 -54.525)" fill="#294a89"/>
            <path id="Path_210682" data-name="Path 210682" d="M125.429,165.732a.9.9,0,0,0-.193-.033c-.819-.166-1.637-.333-2.456-.479.413.073.819.146,1.224.226s.825.16,1.231.246a.39.39,0,0,1,.087.013h.013a.685.685,0,0,0,.093.027" transform="translate(-41.073 -55.271)" fill="#294a89"/>
            <path id="Path_210683" data-name="Path 210683" d="M204.713,190.15v.007a1.031,1.031,0,0,0-.153-.047l.08.02c.007-.007.013,0,.02,0a.457.457,0,0,1,.053.02" transform="translate(-68.431 -63.597)" fill="#294a89"/>
            <path id="Path_210684" data-name="Path 210684" d="M206.051,190.543c-.419-.12-.832-.24-1.251-.366v-.007c.419.126.832.253,1.251.373" transform="translate(-68.511 -63.617)" fill="#294a89"/>
            <path id="Path_210685" data-name="Path 210685" d="M220.226,193.872c-.492-.08-.978-.16-1.471-.26-.852-.16-1.7-.326-2.555-.512.852.18,1.7.346,2.562.506.492.1.978.186,1.464.266" transform="translate(-72.325 -64.597)" fill="#294a89"/>
            <path id="Path_210686" data-name="Path 210686" d="M224.773,194.627v.007c-.1-.02-.2-.04-.293-.053.1.013.2.027.293.047" transform="translate(-75.095 -65.092)" fill="#294a89"/>
            <path id="Path_210687" data-name="Path 210687" d="M272.32,187.62c-.965.439-1.937.852-2.9,1.231-.852.339-1.7.659-2.569.938.16-.053.313-.106.473-.166.705-.233,1.4-.5,2.1-.779.965-.379,1.937-.785,2.9-1.224" transform="translate(-89.269 -62.764)" fill="#294a89"/>
            <path id="Path_210688" data-name="Path 210688" d="M283.716,199.18a63.769,63.769,0,0,1-10.674,6.681q-1.437.709-2.9,1.338,1.467-.639,2.9-1.344a64.168,64.168,0,0,0,10.674-6.675" transform="translate(-90.369 -66.631)" fill="#294a89"/>
            <path id="Path_210689" data-name="Path 210689" d="M291.6,197.81a8.129,8.129,0,0,1-1.058.912,8.674,8.674,0,0,0,1.058-.912" transform="translate(-97.194 -66.173)" fill="#294a89"/>
            <path id="Path_210690" data-name="Path 210690" d="M293.969,176.26c-.113.06-.226.126-.333.193s-.186.12-.286.186a2.857,2.857,0,0,1,.273-.186,3.524,3.524,0,0,1,.346-.193" transform="translate(-98.134 -58.964)" fill="#294a89"/>
            <path id="Path_210691" data-name="Path 210691" d="M295.033,192.5c-.033.073-.067.146-.1.213a12.373,12.373,0,0,1-.659,1.158c-.1.146-.2.293-.306.439a12.16,12.16,0,0,1-1.038,1.224Z" transform="translate(-97.993 -64.397)" fill="#294a89"/>
            <g id="Group_136882" data-name="Group 136882" transform="translate(10.375 116.231)" opacity="0.53" style="isolation: isolate">
              <g id="Group_136881" data-name="Group 136881">
                <g id="Group_136880" data-name="Group 136880" clip-path="url(#clip-path-3)">
                  <path id="Path_210692" data-name="Path 210692" d="M16.755,174.66a.007.007,0,0,0-.007.007c-.386.14-.772.286-1.158.433q.579-.23,1.158-.439Z" transform="translate(-15.59 -174.66)" fill="#294a89"/>
                </g>
              </g>
            </g>
            <g id="Group_136885" data-name="Group 136885" transform="translate(12.411 115.599)" opacity="0.53" style="isolation: isolate">
              <g id="Group_136884" data-name="Group 136884">
                <g id="Group_136883" data-name="Group 136883" clip-path="url(#clip-path-4)">
                  <path id="Path_210693" data-name="Path 210693" d="M19.522,173.71c-.293.1-.579.206-.872.313l.6-.22c.093-.033.18-.067.273-.093" transform="translate(-18.65 -173.71)" fill="#294a89"/>
                </g>
              </g>
            </g>
            <g id="Group_136888" data-name="Group 136888" transform="translate(13.449 115.16)" opacity="0.53" style="isolation: isolate">
              <g id="Group_136887" data-name="Group 136887">
                <g id="Group_136886" data-name="Group 136886" clip-path="url(#clip-path-5)">
                  <path id="Path_210694" data-name="Path 210694" d="M21.248,173.05v.02c-.2.067-.406.14-.606.206-.146.053-.286.1-.433.153.346-.126.685-.26,1.038-.379" transform="translate(-20.21 -173.05)" fill="#294a89"/>
                </g>
              </g>
            </g>
            <g id="Group_136891" data-name="Group 136891" transform="translate(0 119.193)" opacity="0.53" style="isolation: isolate">
              <g id="Group_136890" data-name="Group 136890">
                <g id="Group_136889" data-name="Group 136889" clip-path="url(#clip-path-6)">
                  <path id="Path_210695" data-name="Path 210695" d="M4.279,179.11a.007.007,0,0,0-.007.007c-.479.213-.952.426-1.424.639l-.007.007c-.226.113-.453.213-.679.326a.007.007,0,0,1-.007.007c-.146.06-.286.126-.426.193a.288.288,0,0,1-.047.027c-.12.06-.246.133-.366.2a6.693,6.693,0,0,0-.759.526H.552c-.047.459-.087.918-.126,1.378-.12,1.378-.213,2.755-.279,4.146-.02.373-.033.745-.047,1.118-.02.552-.033,1.111-.047,1.677v.186c-.007.126-.007.246-.007.373v.02c-.02.419-.02.865-.02,1.284,0,2.263.12,4.485.266,6.715v.007c-.02,0-.02.013-.033.013-.146-2.229-.26-4.479-.26-6.735,0-1.145.013-2.269.06-3.4v-.12c0-.067.007-.14.007-.206.087-2.176.233-4.312.453-6.455.087-.067.173-.133.266-.193a6.989,6.989,0,0,1,1.338-.759c.233-.113.459-.213.692-.333v.007c.393-.18.792-.353,1.185-.532l.273-.12Z" transform="translate(0 -179.11)" fill="#294a89"/>
                </g>
              </g>
            </g>
            <g id="Group_136894" data-name="Group 136894" transform="translate(4.279 118.567)" opacity="0.53" style="isolation: isolate">
              <g id="Group_136893" data-name="Group 136893">
                <g id="Group_136892" data-name="Group 136892" clip-path="url(#clip-path-7)">
                  <path id="Path_210696" data-name="Path 210696" d="M7.861,178.17c-.479.206-.958.413-1.431.626.413-.186.832-.373,1.251-.552.06-.027.12-.053.18-.073" transform="translate(-6.43 -178.17)" fill="#294a89"/>
                </g>
              </g>
            </g>
            <g id="Group_136897" data-name="Group 136897" transform="translate(5.71 118.561)" opacity="0.53" style="isolation: isolate">
              <g id="Group_136896" data-name="Group 136896">
                <g id="Group_136895" data-name="Group 136895" clip-path="url(#clip-path-8)">
                  <path id="Path_210697" data-name="Path 210697" d="M8.587,178.16l-.007.007v-.007Z" transform="translate(-8.58 -178.16)" fill="#294a89"/>
                </g>
              </g>
            </g>
            <g id="Group_136900" data-name="Group 136900" transform="translate(6.655 117.948)" opacity="0.53" style="isolation: isolate">
              <g id="Group_136899" data-name="Group 136899">
                <g id="Group_136898" data-name="Group 136898" clip-path="url(#clip-path-9)">
                  <path id="Path_210698" data-name="Path 210698" d="M10.506,177.24l-.007.007c-.166.067-.333.14-.5.206.166-.073.333-.146.5-.213Z" transform="translate(-10 -177.24)" fill="#294a89"/>
                </g>
              </g>
            </g>
            <g id="Group_136903" data-name="Group 136903" transform="translate(14.494 114.588)" opacity="0.53" style="isolation: isolate">
              <g id="Group_136902" data-name="Group 136902">
                <g id="Group_136901" data-name="Group 136901" clip-path="url(#clip-path-10)">
                  <path id="Path_210699" data-name="Path 210699" d="M23.457,172.19c-.552.18-1.125.379-1.677.566.279-.093.552-.186.825-.286s.546-.193.825-.279Z" transform="translate(-21.78 -172.19)" fill="#294a89"/>
                </g>
              </g>
            </g>
            <g id="Group_136906" data-name="Group 136906" transform="translate(104.858 131.684)" opacity="0.53" style="isolation: isolate">
              <g id="Group_136905" data-name="Group 136905">
                <g id="Group_136904" data-name="Group 136904" clip-path="url(#clip-path-11)">
                  <path id="Path_210700" data-name="Path 210700" d="M178.546,205.393c-1.7-.559-3.4-1.151-5.084-1.75-4.179-1.491-8.325-3.048-12.484-4.565-1.131-.413-2.256-.819-3.407-1.2,1.151.379,2.3.785,3.44,1.2,4.159,1.517,8.3,3.074,12.478,4.565,1.677.6,3.367,1.185,5.058,1.75" transform="translate(-157.57 -197.88)" fill="#294a89"/>
                </g>
              </g>
            </g>
            <g id="Group_136909" data-name="Group 136909" transform="translate(173.635 128.15)" opacity="0.53" style="isolation: isolate">
              <g id="Group_136908" data-name="Group 136908">
                <g id="Group_136907" data-name="Group 136907" clip-path="url(#clip-path-12)">
                  <path id="Path_210701" data-name="Path 210701" d="M261.133,192.57v.007h-.007c-.073.02-.14.04-.206.053.066-.02.133-.04.206-.06Z" transform="translate(-260.92 -192.57)" fill="#294a89"/>
                </g>
              </g>
            </g>
            <g id="Group_136912" data-name="Group 136912" transform="translate(177.581 124.603)" opacity="0.53" style="isolation: isolate">
              <g id="Group_136911" data-name="Group 136911">
                <g id="Group_136910" data-name="Group 136910" clip-path="url(#clip-path-13)">
                  <path id="Path_210702" data-name="Path 210702" d="M272.839,187.24c-.173.087-.346.173-.519.253-.965.439-1.937.852-2.9,1.231-.852.339-1.7.659-2.569.938.16-.053.313-.106.473-.166.519-.186,1.038-.379,1.551-.579.173-.067.339-.126.512-.193q1.447-.569,2.9-1.231c.18-.086.366-.173.552-.253" transform="translate(-266.85 -187.24)" fill="#294a89"/>
                </g>
              </g>
            </g>
            <g id="Group_136915" data-name="Group 136915" transform="translate(186.717 121.779)" opacity="0.53" style="isolation: isolate">
              <g id="Group_136914" data-name="Group 136914">
                <g id="Group_136913" data-name="Group 136913" clip-path="url(#clip-path-14)">
                  <path id="Path_210703" data-name="Path 210703" d="M280.578,184.232q1.122-.6,2.221-1.236-1.1.639-2.221,1.236" transform="translate(-280.578 -182.996)" fill="#294a89"/>
                </g>
              </g>
            </g>
            <g id="Group_136918" data-name="Group 136918" transform="translate(188.938 121.601)" opacity="0.53" style="isolation: isolate">
              <g id="Group_136917" data-name="Group 136917">
                <g id="Group_136916" data-name="Group 136916" clip-path="url(#clip-path-15)">
                  <path id="Path_210704" data-name="Path 210704" d="M283.916,182.907l.3-.178-.3.178" transform="translate(-283.916 -182.729)" fill="#294a89"/>
                </g>
              </g>
            </g>
            <g id="Group_136921" data-name="Group 136921" transform="translate(186.204 123.015)" opacity="0.53" style="isolation: isolate">
              <g id="Group_136920" data-name="Group 136920">
                <g id="Group_136919" data-name="Group 136919" clip-path="url(#clip-path-16)">
                  <path id="Path_210705" data-name="Path 210705" d="M279.807,185.123q.258-.134.513-.27-.256.137-.513.27" transform="translate(-279.807 -184.853)" fill="#294a89"/>
                </g>
              </g>
            </g>
            <g id="Group_136924" data-name="Group 136924" transform="translate(189.24 117.296)" opacity="0.53" style="isolation: isolate">
              <g id="Group_136923" data-name="Group 136923">
                <g id="Group_136922" data-name="Group 136922" clip-path="url(#clip-path-17)">
                  <path id="Path_210706" data-name="Path 210706" d="M290.965,176.26a3.518,3.518,0,0,0-.346.193,2.853,2.853,0,0,0-.273.186,3.6,3.6,0,0,0-.313.206h-.007a1.126,1.126,0,0,1-.093.073c-.08.053-.16.113-.246.173-.12.087-.24.18-.366.273h-.007c-.406.293-.819.579-1.231.865h-.007c-.419.286-.832.559-1.251.838h-.007l-1.271.812h-.007c-.386.24-.779.453-1.171.685q2.525-1.487,4.911-3.2c.526-.393.952-.692,1.311-.918a2.785,2.785,0,0,1,.373-.186" transform="translate(-284.37 -176.26)" fill="#294a89"/>
                </g>
              </g>
            </g>
            <g id="Group_136927" data-name="Group 136927" transform="translate(195.915 117.176)" opacity="0.53" style="isolation: isolate">
              <g id="Group_136926" data-name="Group 136926">
                <g id="Group_136925" data-name="Group 136925" clip-path="url(#clip-path-18)">
                  <path id="Path_210707" data-name="Path 210707" d="M294.58,176.08a.724.724,0,0,0-.1.053.375.375,0,0,0-.08.027,1.057,1.057,0,0,1,.18-.08" transform="translate(-294.4 -176.08)" fill="#294a89"/>
                </g>
              </g>
            </g>
            <g id="Group_136930" data-name="Group 136930" transform="translate(196.095 117.13)" opacity="0.53" style="isolation: isolate">
              <g id="Group_136929" data-name="Group 136929">
                <g id="Group_136928" data-name="Group 136928" clip-path="url(#clip-path-19)">
                  <path id="Path_210708" data-name="Path 210708" d="M294.77,176.01v.007l-.1.04a.672.672,0,0,1,.1-.047" transform="translate(-294.67 -176.01)" fill="#294a89"/>
                </g>
              </g>
            </g>
            <g id="Group_136933" data-name="Group 136933" transform="translate(183.77 123.285)" opacity="0.53" style="isolation: isolate">
              <g id="Group_136932" data-name="Group 136932">
                <g id="Group_136931" data-name="Group 136931" clip-path="url(#clip-path-20)">
                  <path id="Path_210709" data-name="Path 210709" d="M278.586,185.26c-.359.186-.712.386-1.078.566-.22.12-.446.226-.672.333s-.453.22-.679.326h-.007v-.013c.819-.386,1.63-.792,2.436-1.211" transform="translate(-276.15 -185.26)" fill="#294a89"/>
                </g>
              </g>
            </g>
            <path id="Path_210710" data-name="Path 210710" d="M197.676,216.575a24.684,24.684,0,0,1-3.6,11.79,21.382,21.382,0,0,1-6.106,6.222,63.791,63.791,0,0,1-13.463,7.058,65.944,65.944,0,0,1-14.079,3.639,85.6,85.6,0,0,1-18.048.684c-.769-.049-1.539-.1-2.329-.159a86.9,86.9,0,0,1-12.358-2.015c-5.55-1.294-10.99-2.967-16.461-4.525-1.423-.409-2.833-.818-4.256-1.227-9.824-2.862-19.631-5.813-29.686-7.614a109,109,0,0,0-14.441-1.7c-1.545-.061-3.083-.1-4.6-.1a94.016,94.016,0,0,0-25.217,3.59,97.4,97.4,0,0,0-9.446,3.156,112.642,112.642,0,0,0-11.217,5.045c-.226.116-.47.244-.7.36-.623.333-1.246.641-1.881.965A98.389,98.389,0,0,1,4.8,227.333a9.429,9.429,0,0,1,1.05-.721c.214-.11.446-.244.653-.36a111.044,111.044,0,0,1,12.071-5.746c3.1-1.246,6.24-2.357,9.415-3.291a101.131,101.131,0,0,1,12.773-2.928q2.922-.466,5.929-.788c1.636-.165,3.254-.293,4.879-.391a121.679,121.679,0,0,1,13.591-.1c3.749.177,7.479.537,11.18,1.044,1.935.262,3.852.562,5.782.9a173.045,173.045,0,0,1,21.089,5.191c8.041,2.5,16.1,4.994,24.27,6.991,4.781,1.179,9.61,2.2,14.489,2.919.525.1,1.05.177,1.575.244a66.2,66.2,0,0,0,10.575.635,69.453,69.453,0,0,0,15.46-2.027,83.353,83.353,0,0,0,11.839-3.9,109.5,109.5,0,0,0,12.052-5.929c1.014-.574,2.009-1.179,3.144-1.868.342-.214.684-.427,1.065-.641Z" transform="translate(-1.605 -71.21)" fill="#294a89"/>
            <path id="Path_210711" data-name="Path 210711" d="M79.105,265.271l-17.413,1.081c.263-.049.507-.1.769-.133a93.535,93.535,0,0,1,16.644-.948" transform="translate(-20.638 -88.724)" fill="#294a89"/>
            <path id="Path_210712" data-name="Path 210712" d="M190.114,285.945c.36.043.714.079,1.075.116l-1.081-.11c-.684-.067-1.362-.146-2.039-.232.678.079,1.361.158,2.045.226" transform="translate(-62.914 -95.581)" fill="#294a89"/>
            <path id="Path_210713" data-name="Path 210713" d="M195.573,286.466c-.348-.025-.69-.049-1.044-.079-.232-.019-.458-.037-.7-.049-.354-.031-.708-.067-1.065-.1.354.031.714.061,1.065.1.25.019.476.031.708.049.349.03.7.061,1.038.085" transform="translate(-64.484 -95.753)" fill="#294a89"/>
            <path id="Path_210714" data-name="Path 210714" d="M191.725,268.114a42.508,42.508,0,0,1-10.5,14.458s0,.019-.012.019-.019.012-.025.019c-.7.617-1.41,1.2-2.155,1.765-.012.033-.025.043-.037.031a41.55,41.55,0,0,1-9.854,5.605,69.3,69.3,0,0,1-25.474,4.935h-.006a4.935,4.935,0,0,1-.525.019l-.012.018a109.308,109.308,0,0,1-17.963-1.459c-2.125-.323-4.213-.739-6.307-1.191h-.019c-.1-.012-.208-.049-.311-.061-9.262-2.033-18.268-5.062-27.439-7.387a116.726,116.726,0,0,0-24.336-3.714c-.323-.012-.665-.031-1-.031h-.019a80.016,80.016,0,0,0-14.244.848,73.443,73.443,0,0,0-14.886,3.834c-.8.293-1.587.6-2.387.932a99.212,99.212,0,0,1-9.76-12.528c.333-.165.659-.323,1-.488s.684-.333,1.044-.477a82.485,82.485,0,0,1,11.76-4.439c.311-.1.641-.2.952-.275a83.3,83.3,0,0,1,9.934-2.161c.037,0,.055-.019.085,0L66.647,265.3h.006c.25,0,.476,0,.721.012s.446,0,.671.018c14.3.574,28.068,3.834,41.629,8.206a137.763,137.763,0,0,0,15.014,3.944c.837.165,1.664.333,2.521.488,2.033.354,4.073.671,6.118.922h.006c.677.086,1.356.165,2.039.232l1.081.11h.006c.177.019.354.037.532.049s.354.037.532.055c.244.012.47.031.7.049.354.031.7.055,1.044.079h.006c.348.025.69.049,1.032.061,1.294.067,2.571.116,3.865.146,1.887.037,3.785.018,5.684-.061a92.126,92.126,0,0,0,18.158-2.571l.019-.019c1.96-.458,3.926-1.013,5.892-1.636,2.912-.922,5.764-2,8.6-3.163,2.766-1.148,5.5-2.375,8.252-3.669l.012-.012c.3-.133.623-.281.932-.427Z" transform="translate(-8.183 -88.752)" fill="#294a89"/>
            <g id="Group_136936" data-name="Group 136936" transform="translate(41.055 176.498)" opacity="0.53" style="isolation: isolate">
              <g id="Group_136935" data-name="Group 136935">
                <g id="Group_136934" data-name="Group 136934" clip-path="url(#clip-path-21)">
                  <path id="Path_210715" data-name="Path 210715" d="M79.105,265.271l-17.413,1.081c.263-.049.507-.1.769-.133a93.535,93.535,0,0,1,16.644-.948" transform="translate(-61.692 -265.222)" fill="#294a89"/>
                </g>
              </g>
            </g>
            <g id="Group_136939" data-name="Group 136939" transform="translate(125.155 190.138)" opacity="0.53" style="isolation: isolate">
              <g id="Group_136938" data-name="Group 136938">
                <g id="Group_136937" data-name="Group 136937" clip-path="url(#clip-path-22)">
                  <path id="Path_210716" data-name="Path 210716" d="M190.114,285.945c.36.043.714.079,1.075.116l-1.081-.11c-.684-.067-1.362-.146-2.039-.232.678.079,1.361.158,2.045.226" transform="translate(-188.069 -285.719)" fill="#294a89"/>
                </g>
              </g>
            </g>
            <g id="Group_136942" data-name="Group 136942" transform="translate(128.278 190.481)" opacity="0.53" style="isolation: isolate">
              <g id="Group_136941" data-name="Group 136941">
                <g id="Group_136940" data-name="Group 136940" clip-path="url(#clip-path-23)">
                  <path id="Path_210717" data-name="Path 210717" d="M195.573,286.466c-.348-.025-.69-.049-1.044-.079-.232-.019-.458-.037-.7-.049-.354-.031-.708-.067-1.065-.1.354.031.714.061,1.065.1.25.019.476.031.708.049.349.03.7.061,1.038.085" transform="translate(-192.762 -286.234)" fill="#294a89"/>
                </g>
              </g>
            </g>
            <path id="Path_210718" data-name="Path 210718" d="M167.319,321.256a98.357,98.357,0,0,1-42.65,12.544c-23.558,2.11-45.731-8.026-45.731-8.026-.246-.106-.492-.213-.732-.326A98.185,98.185,0,0,1,59,314.1c1.045-.286,2.09-.559,3.141-.792A81.749,81.749,0,0,1,85,311.347a.037.037,0,0,1,.033.02,100.739,100.739,0,0,1,20.583,3.261c4.825,1.271,9.656,2.6,14.521,3.767h.02a128.883,128.883,0,0,0,21.355,3.62,90.643,90.643,0,0,0,20.969-.9.018.018,0,0,1,.02-.02c.479-.067.952-.166,1.424-.246,1.391-.26,3.707-.616,5.131-.809Z" transform="translate(-19.737 -104.113)" fill="#294a89"/>
            <g id="Group_136945" data-name="Group 136945" transform="translate(113.716 55.556)" opacity="0.68" style="isolation: isolate">
              <g id="Group_136944" data-name="Group 136944">
                <g id="Group_136943" data-name="Group 136943" clip-path="url(#clip-path-24)">
                  <path id="Path_210719" data-name="Path 210719" d="M172.779,97.6c-.916-5.831-1.508-10.465-1.9-14.116Z" transform="translate(-170.88 -83.483)" fill="#36998b"/>
                </g>
              </g>
            </g>
            <path id="Path_210720" data-name="Path 210720" d="M116.557,72.98,115.1,73.7c.18-.1.359-.2.526-.28Z" transform="translate(-38.504 -24.414)" fill="#294a89"/>
            <path id="Path_210721" data-name="Path 210721" d="M196.98,124.536c-.073-1.125-.166-2.249-.279-3.367q-.2-2.016-.492-4.026c-.067.027-.133.053-.2.087a.375.375,0,0,0-.08.027l-.08.04c-.113.06-.226.126-.333.193s-.186.12-.286.186a3.6,3.6,0,0,0-.313.206.007.007,0,0,0-.007.007c-.027.02-.06.04-.093.067-.08.053-.16.113-.246.173-.12.087-.24.18-.366.273l-.007.007c-.406.293-.819.579-1.231.858l-.007.007c-.419.286-.832.559-1.251.832l-.007.007c-.426.273-.845.539-1.271.805-.007,0-.007,0-.007.007-.4.246-.8.486-1.2.719s-.812.472-1.224.7c-.333.193-.665.373-1,.546-.166.1-.339.186-.512.28-.22.12-.446.233-.672.346-.106.06-.22.113-.333.173s-.226.113-.339.166c-.22.12-.446.226-.672.333s-.453.22-.679.326h-.013c-.067.033-.133.06-.193.093-.173.086-.346.173-.519.253-.965.439-1.937.852-2.9,1.231-.852.339-1.7.659-2.569.938-.286.1-.579.193-.865.286-.945.306-1.9.592-2.862.832v.013h-.013c-.073.02-.14.04-.206.053l-.073.02c-.087.027-.186.053-.286.08h-.027q-1.867.489-3.787.832h-.02c-1.5.286-3.008.506-4.519.672-.672.073-1.351.133-2.023.18-.772.053-1.544.093-2.316.113h-.007c-.14.013-.273.02-.419.02-1.75.047-3.5.013-5.29-.08h-.047c-1.244-.073-2.522-.186-3.78-.333-.459-.053-.918-.12-1.364-.18v.007c-.1-.02-.2-.04-.293-.053-.5-.067-.992-.14-1.484-.213s-.978-.16-1.471-.26c-.852-.16-1.7-.326-2.555-.512l-1.278-.28c-.845-.193-1.7-.393-2.535-.612s-1.684-.446-2.522-.685c-.419-.12-.832-.24-1.251-.366v-.007H136.3v.007a1.026,1.026,0,0,0-.153-.047l.08.02a.238.238,0,0,0-.073-.027h-.027q-1.557-.449-3.108-.972t-3.068-1.031c-3.733-1.258-7.433-2.649-11.14-4.013l-1.877-.685c-.652-.246-1.311-.472-1.983-.705v.02h-.007v-.027c-.146-.546-.273-1.1-.406-1.644-.492-2.163-.945-4.352-1.391-6.548-.053-.226-.08-.446-.133-.672-1.031-5.184-1.877-10.415-2.682-15.752-.073-.379-.12-.745-.18-1.145-.639-4.226-1.264-8.531-1.937-12.95-.06-.426-.126-.858-.193-1.278-.033-.233-.067-.459-.1-.705q-.719-4.592-1.264-9.223c-.047-.459-.113-.912-.16-1.371-.446-3.98-.805-7.959-1.018-11.959-.033-.5-.06-.992-.08-1.5-.166-2.822-.246-5.657-.279-8.471-.013-.339-.013-.7-.013-1.045V43.9c-.02-.592,0-1.231,0-2.03,1.371.652,2.735,1.311,4.059,1.943.838.4,1.657.792,2.476,1.178.472.233.945.459,1.417.692,1.517.719,3.015,1.424,4.512,2.13.492.233.992.472,1.491.712l.067.027,4.159,2.07-1.2-2.795-.193-.459c-.027-.04-.047-.1-.08-.146-2.163-4.4-4.3-8.811-6.495-13.23-.326-.672-.652-1.324-.985-2C109.164,21.468,103.94,10.861,98.623,0,93.279,10.861,88.055,21.468,82.878,32c-.319.672-.652,1.324-.978,2-2.2,4.419-6.568,13.329-6.588,13.376l-.492,1.165-.892,2.09,2.5-1.244c.246-.126.486-.273.712-.373l.932-.439.087-.047c.5-.24,1-.472,1.5-.705,1.324-.626,2.655-1.264,3.98-1.89.659-.306,1.311-.619,1.97-.932.8-.386,1.6-.779,2.422-1.178h.013c1.344-.632,2.7-1.291,4.079-1.943,0,.8.02,1.437,0,2.03v.932c0,.339,0,.705-.02,1.045-.033,2.815-.106,5.637-.273,8.451-.02.506-.053,1.012-.087,1.517-.213,4-.572,7.979-1.012,11.959-.053.459-.12.918-.166,1.371-.359,3.088-.792,6.162-1.258,9.223-.04.246-.067.492-.1.719-.067.426-.133.858-.2,1.264-.672,4.405-1.291,8.711-1.93,12.93-.067.4-.113.772-.173,1.171-.812,5.33-1.657,10.561-2.689,15.752-.02.047-.02.113-.04.16v.013h.007a.43.43,0,0,0,.087.027h.013a.684.684,0,0,0,.093.027.9.9,0,0,0-.193-.033c-.819-.166-1.637-.333-2.456-.479-2.7-.479-5.424-.9-8.139-1.231h-.02a.024.024,0,0,0,.02.007h-.067c-.772-.1-1.551-.173-2.342-.26l.619.06c-.2-.02-.406-.047-.612-.067-.819-.08-1.637-.166-2.476-.226-.459-.04-.918-.067-1.371-.12a.007.007,0,0,1-.007.007c-.932-.067-1.863-.113-2.815-.16q-5.281-.3-10.654-.1H53.69c-.5.02-.985.047-1.477.067l.007-.007h-.007c-.672.033-1.344.06-2.016.106-2.908.186-5.8.446-8.658.812-.506.067-1.012.126-1.524.213v.007c-1.191.146-2.389.326-3.587.519-3.174.526-6.322,1.145-9.436,1.917-.532.133-1.078.253-1.6.413v-.013c-1.517.353-3.028.772-4.525,1.218-1.557.459-3.134.945-4.672,1.471l-.007.007c-.552.18-1.125.379-1.677.566v.02H14.5v.007c-.2.067-.406.14-.606.206-.146.053-.286.1-.433.153l-.166.06c-.293.1-.579.206-.872.313l-.872.319a.007.007,0,0,0-.007.007c-.386.14-.772.286-1.158.433-.047.013-.087.033-.133.047a1.844,1.844,0,0,1-.173.067c-.486.193-.972.386-1.457.572l-.007.007L7.54,117.8c-.126.047-.246.1-.366.146l-.007.007c-.166.067-.333.14-.5.206-.313.133-.632.266-.938.4l-.007.007c-.479.206-.958.413-1.431.626a.007.007,0,0,0-.007.007c-.479.213-.952.426-1.424.639l-.007.007c-.226.113-.453.213-.679.326a.007.007,0,0,1-.007.007c-.146.06-.286.126-.426.193a.289.289,0,0,1-.047.027c-.12.06-.246.133-.366.2a6.69,6.69,0,0,0-.759.526c-.047.459-.093.918-.133,1.378-.12,1.378-.213,2.755-.279,4.146-.02.373-.033.745-.047,1.118-.02.739-.04,1.484-.047,2.236v-.373c-.007.126-.007.246-.007.373v.02c-.02.419-.02.865-.02,1.284,0,2.263.12,4.485.266,6.715.619-.359,1.111-.619,1.571-.885a109.889,109.889,0,0,1,12.87-6.023q1.1-.439,2.2-.839c.732-.266,1.471-.532,2.209-.785h.033c-.007,0-.013.007-.02.007h.02c1.8-.626,3.653-1.2,5.49-1.724,2.076-.592,4.173-1.1,6.3-1.571,2.289-.472,4.612-.905,6.974-1.244,1.65-.246,3.307-.459,4.944-.626,2.016-.233,4.013-.393,6.023-.526,2.216-.146,4.425-.226,6.621-.26q3.344-.05,6.661.067a136.764,136.764,0,0,1,18.633,1.917,151.264,151.264,0,0,1,24.037,6.156c1.151.379,2.3.785,3.44,1.2,4.159,1.517,8.3,3.074,12.478,4.565,1.677.6,3.367,1.185,5.058,1.75.559.193,1.125.373,1.69.559q3.424,1.1,6.854,2.063A106.566,106.566,0,0,0,146,144.368c.433.073.852.14,1.258.186a62.857,62.857,0,0,0,11.014.652,56.552,56.552,0,0,0,13.835-1.976c.892-.246,1.8-.506,2.7-.792.339-.113.679-.22,1.018-.333l.992-.359c1-.366,1.99-.759,2.968-1.178s1.943-.872,2.9-1.344a64.168,64.168,0,0,0,10.674-6.675,8.677,8.677,0,0,0,1.058-.912l.027-.02a1.735,1.735,0,0,0,.206-.18h.007l.013-.013c.007-.007.007-.007.013-.007.08-.086.173-.173.253-.26.007-.007.013-.013.013-.02l2.1-3.035c.007-.007.007-.013.013-.02a1.809,1.809,0,0,1,.073-.166c-.033-1.131-.087-2.256-.16-3.381m-82.751-5.676h-.007v-.007h.007Z" transform="translate(-0.013)" fill="#294a89"/>
            <path id="Path_210722" data-name="Path 210722" d="M19.522,173.71c-.293.1-.579.206-.872.313l.6-.22c.093-.033.18-.067.273-.093" transform="translate(-6.239 -58.111)" fill="#294a89"/>
          </g>
        </g>
      </g>
    </g>
  </g>
</svg>
